<?xml version="1.0" standalone="no"?>
<!DOCTYPE svg PUBLIC "-//W3C//DTD SVG 20010904//EN"
 "http://www.w3.org/TR/2001/REC-SVG-20010904/DTD/svg10.dtd">
<svg version="1.0" xmlns="../../external.html?link=http://www.w3.org/2000/svg"
 width="256.000000pt" height="256.000000pt" viewBox="0 0 256.000000 256.000000"
 preserveAspectRatio="xMidYMid meet">
<metadata>
Created by potrace 1.11, written by Peter Selinger 2001-2013
</metadata>
<g transform="translate(0.000000,256.000000) scale(0.100000,-0.100000)"
fill="#000000" stroke="none">
<path d="M570 2369 c-70 -14 -180 -73 -234 -126 -45 -45 -115 -141 -121 -167
-1 -6 -5 -18 -8 -26 -24 -65 -27 -148 -27 -763 0 -393 4 -676 10 -708 34 -186
204 -355 390 -389 33 -6 309 -10 711 -10 721 1 715 0 830 62 82 43 163 128
205 215 19 40 38 82 42 95 11 41 14 1357 2 1424 -9 57 -29 109 -65 173 -26 46
-126 139 -183 169 -119 63 -98 62 -835 61 -370 -1 -692 -5 -717 -10z"/>
</g>
</svg>
