<?xml version="1.0" encoding="UTF-8"?>
<!DOCTYPE svg PUBLIC "-//W3C//DTD SVG 1.1//EN" "http://www.w3.org/Graphics/SVG/1.1/DTD/svg11.dtd">
<svg xmlns="http://www.w3.org/2000/svg" version="1.1" width="103px" height="13px" style="shape-rendering:geometricPrecision; text-rendering:geometricPrecision; image-rendering:optimizeQuality; fill-rule:evenodd; clip-rule:evenodd" xmlns:xlink="http://www.w3.org/1999/xlink">
<g><path style="opacity:0.844" fill="#fefffe" d="M 19.5,3.5 C 20.7498,3.57735 21.5831,4.24402 22,5.5C 22.3076,4.69194 22.8076,4.02527 23.5,3.5C 24.8333,5.83333 24.8333,8.16667 23.5,10.5C 22.7492,9.62402 22.2492,8.62402 22,7.5C 21.7508,8.62402 21.2508,9.62402 20.5,10.5C 19.5258,8.25731 19.1924,5.92397 19.5,3.5 Z"/></g>
<g><path style="opacity:0.693" fill="#fefffe" d="M 25.5,3.5 C 26.8333,3.5 28.1667,3.5 29.5,3.5C 29.9071,10.0486 30.9071,10.0486 32.5,3.5C 33.4519,5.04533 33.7852,6.71199 33.5,8.5C 34.5,8.5 35.5,8.5 36.5,8.5C 36.5198,6.85703 35.8532,5.5237 34.5,4.5C 36.3333,4.16667 38.1667,3.83333 40,3.5C 47.6697,3.56005 55.3364,3.56005 63,3.5C 65.0499,3.69096 66.8832,4.35763 68.5,5.5C 70.6032,3.12011 71.7699,3.78678 72,7.5C 72.1118,4.55291 73.6118,3.21958 76.5,3.5C 76.5573,8.68174 77.224,8.68174 78.5,3.5C 79.7989,4.09001 80.6322,5.09001 81,6.5C 81.2492,5.37598 81.7492,4.37598 82.5,3.5C 85.9851,3.68858 89.6518,3.68858 93.5,3.5C 93.7733,5.45101 93.1066,6.95101 91.5,8C 92.3081,8.30762 92.9747,8.80762 93.5,9.5C 89.5529,10.2727 85.7196,10.606 82,10.5C 81.0546,10.0946 80.3879,9.42797 80,8.5C 79.4806,9.51556 78.6473,10.1822 77.5,10.5C 74.905,9.76283 72.2384,9.76283 69.5,10.5C 68.8333,6.5 68.1667,6.5 67.5,10.5C 62.0204,9.94897 56.6871,9.94897 51.5,10.5C 51.1782,7.18805 49.8449,7.18805 47.5,10.5C 45.3284,10.3241 42.9951,10.1575 40.5,10C 39.1192,3.98014 38.4526,4.14681 38.5,10.5C 34.1667,10.5 29.8333,10.5 25.5,10.5C 25.5,8.16667 25.5,5.83333 25.5,3.5 Z M 88.5,4.5 C 89.0431,4.55999 89.3764,4.89333 89.5,5.5C 88.0663,6.22978 86.8996,7.22978 86,8.5C 85.5172,7.55198 85.3505,6.55198 85.5,5.5C 86.791,5.73731 87.791,5.40397 88.5,4.5 Z M 42.5,5.5 C 44.7602,6.23764 44.9269,7.23764 43,8.5C 41.2716,7.64767 41.105,6.64767 42.5,5.5 Z M 55.5,5.5 C 56.404,6.20895 56.7373,7.20895 56.5,8.5C 55.448,8.64945 54.448,8.48278 53.5,8C 54.756,7.58309 55.4226,6.74975 55.5,5.5 Z M 62.5,5.5 C 63.5,5.5 64.5,5.5 65.5,5.5C 65.5,6.5 65.5,7.5 65.5,8.5C 64.5,8.5 63.5,8.5 62.5,8.5C 62.5,7.5 62.5,6.5 62.5,5.5 Z"/></g>
<g><path style="opacity:1" fill="#3b6284" d="M 11.5,3.5 C 12.1667,3.83333 12.8333,4.16667 13.5,4.5C 14.1667,4.83333 14.8333,5.16667 15.5,5.5C 14.8288,6.84714 14.8288,8.01381 15.5,9C 14.9056,9.46434 14.2389,9.63101 13.5,9.5C 13.1583,8.66175 12.4916,8.32842 11.5,8.5C 11.5,7.83333 11.5,7.16667 11.5,6.5C 12.8333,6.16667 12.8333,5.83333 11.5,5.5C 11.5,5.16667 11.5,4.83333 11.5,4.5C 11.5,4.16667 11.5,3.83333 11.5,3.5 Z"/></g>
<g><path style="opacity:0.031" fill="#778ba1" d="M 15.5,5.5 C 15.8333,5.5 16.1667,5.5 16.5,5.5C 16.5,7.16667 16.5,8.83333 16.5,10.5C 14.901,10.2322 13.5676,10.5655 12.5,11.5C 12.1667,11.5 11.8333,11.5 11.5,11.5C 11.5,10.8333 11.5,10.1667 11.5,9.5C 12.1667,9.5 12.8333,9.5 13.5,9.5C 14.2389,9.63101 14.9056,9.46434 15.5,9C 14.8288,8.01381 14.8288,6.84714 15.5,5.5 Z"/></g>
<g><path style="opacity:0.529" fill="#2e4a69" d="M 12.5,11.5 C 13.5676,10.5655 14.901,10.2322 16.5,10.5C 16.5,8.83333 16.5,7.16667 16.5,5.5C 16.5,4.83333 16.5,4.16667 16.5,3.5C 14.1667,2.16667 11.8333,2.16667 9.5,3.5C 9.5,3.83333 9.5,4.16667 9.5,4.5C 9.5,5.16667 9.16667,5.5 8.5,5.5C 8.5,4.16667 8.5,2.83333 8.5,1.5C 11.5,1.5 14.5,1.5 17.5,1.5C 17.5,4.83333 17.5,8.16667 17.5,11.5C 15.8333,11.5 14.1667,11.5 12.5,11.5 Z M 13.5,4.5 C 14.209,3.59603 15.209,3.26269 16.5,3.5C 16.5,4.16667 16.5,4.83333 16.5,5.5C 16.1667,5.5 15.8333,5.5 15.5,5.5C 14.8333,5.16667 14.1667,4.83333 13.5,4.5 Z"/></g>
<g><path style="opacity:0.075" fill="#808d9e" d="M 9.5,3.5 C 11.8333,2.16667 14.1667,2.16667 16.5,3.5C 15.209,3.26269 14.209,3.59603 13.5,4.5C 12.8333,4.16667 12.1667,3.83333 11.5,3.5C 10.8333,3.5 10.1667,3.5 9.5,3.5 Z"/></g>
<g><path style="opacity:0.337" fill="#49bbe2" d="M 9.5,4.5 C 10.1667,4.5 10.8333,4.5 11.5,4.5C 11.5,4.83333 11.5,5.16667 11.5,5.5C 11.5,5.83333 11.5,6.16667 11.5,6.5C 11.5,7.16667 11.5,7.83333 11.5,8.5C 11.5,8.83333 11.5,9.16667 11.5,9.5C 11.5,10.1667 11.5,10.8333 11.5,11.5C 10.5,11.5 9.5,11.5 8.5,11.5C 8.5,9.5 8.5,7.5 8.5,5.5C 9.16667,5.5 9.5,5.16667 9.5,4.5 Z"/></g>
</svg>
